<svg xmlns="http://www.w3.org/2000/svg" viewBox="0 0 64 64">
  <rect width="64" height="64" rx="12" fill="#111318"/>
  <path d="M10 36h9l7-9h17l7 9h4c3 0 5 2 5 5v3H5v-3c0-3 2-5 5-5Z" fill="#e10600"/>
  <path d="M25 30h16l4 6H20l5-6Z" fill="#f4f5f6"/>
  <path d="M29 20h13l8 8h-9l-4-3H25l4-5Z" fill="#e10600"/>
  <circle cx="17" cy="44" r="7" fill="#050608"/>
  <circle cx="17" cy="44" r="3" fill="#cdd1d5"/>
  <circle cx="48" cy="44" r="7" fill="#050608"/>
  <circle cx="48" cy="44" r="3" fill="#cdd1d5"/>
  <path d="M8 24h17l-4 5H8v-5Z" fill="#f4f5f6"/>
</svg>
